<?xml version="1.0" encoding="iso-8859-1"?>
<!-- Generator: Adobe Illustrator 25.1.0, SVG Export Plug-In . SVG Version: 6.00 Build 0)  -->
<svg version="1.1" id="Layer_1" xmlns="http://www.w3.org/2000/svg" xmlns:xlink="http://www.w3.org/1999/xlink" x="0px" y="0px"
	 width="720px" height="720px" viewBox="0 0 720 720" enable-background="new 0 0 720 720" xml:space="preserve">
<path fill="#3DA549" d="M417.433,311.558c6.266,4.814,169.445-81.481,248.11-44.927c73.141,39.995,64.524,155.124-5.527,190.982
	c-31.924,15.633,29.383,69.074-34.715,133.871C501.358,706.21,418.804,547.256,372.398,445.771
	c7.575,83.753,25.694,166.514,59.602,243.74c7.426,15.959-22.825,16.498-43.947,25.821c-9.441,4.167-10.423-3.74-11.872-8.819
	c-22.901-85.652-37.673-172.777-24.824-260.742c-11.075,7.275-89.037,186.9-179.262,183.967
	c-61.529-3.454-128.181-69.309-103.209-146.925c3.687-11.459,3.159-17.982-9.013-25.382
	c-101.571-55.118-57.807-221.08,64.861-203.582c65.586,8.789,177.062,61.133,172.967,57.708
	c-59.911-51.448-128.126-115.516-140.863-197.941C148.593,11.923,286.33-28.778,353.16,31.99c8.798,7.227,12.504,0.413,16.708-2.763
	c25.742-19.45,54.276-26.866,86.381-25.014c86.088,4.964,131.132,82.48,91.865,159.457
	C518.153,224.792,467.629,267.174,417.433,311.558z"/>
<path fill="#010101" d="M31.142,405.631c-8.98,4.335-12.796,8.45-12.963,11.98c-4.226-7.21-7.517-14.818-9.908-22.653
	C22.183,390.425,47.205,397.876,31.142,405.631z M117.164,410.851c13.652,7.653,13.192-12.828,7.132-19.64
	c-13.763-5.036-5.929,6.506-5.773,12.627C116.403,405.685,114.365,408.455,117.164,410.851z M113.109,333.63
	c-7.748-0.187,0.09,17.456-10.685,10.227c-3.058-5.233-7.719-2.617-8.422,3.1c-3.787,24.99,34.539,32.604,53.379,34.912
	c19.136,2.599,7.272-14.467,16.425-16.276c5.623-0.825,16.341,2.375,16.695-5.982c3.08-37.387-30.108-17.249-47.868-13.314
	C128.654,339.121,122.118,332.344,113.109,333.63z M321.842,397.064c-0.649-2.691-3.362-5.553-1.375-8.285
	c7.723-7.132-11.31-17.923-18.98-15.337c-10.744,5.779-21.191-9.082-30.428-1.84c-18.774,32.375,5.024,26.71-0.432,38.658
	c-18.203,22.839,31.586,8.251,12.402-2.855c6.793-6.686-2.315-11.384-5.559-15.985c1.042-8.733,17.472-11.24,22.191-4.696
	c5.154,6.7-7.079,9.635-7.021,16.531c-1.501,11.8,6.174,7.382,11.717,3.855C310.134,416.51,322.877,405.13,321.842,397.064z
	 M349.997,406.834c-0.779,2.785,1.488,10.151-3.447,8.72c-16.765-4.342-44.704,18.988-40.087,37.683
	c3.712,11.441,22.207,3.085,17.809-8.315c-4.732-22.762,26.802-3.445,28.874-20.389c9.307-5.714,2.131,14.969,9.956,15.933
	c10.098,8.521-9.38,13.506-5.052,22.619c5.868,7.377,11.947,6.759,16.358,2.566c-0.735-6.619-1.409-13.246-2.009-19.88
	c2.029,4.437,4.128,8.985,6.295,13.613c2.87-6.414,3.261-14.748-0.802-20.372C393.598,419.662,370.584,401.1,349.997,406.834z
	 M106.307,492.417c5.509-13.303-16.796-20.753-24.663-11.501c-8.424,9.436-19.932,41.947-2.183,46.814
	c13.872,6.924,15.991-3.252,10.165-13.624C98.632,487.87,87.956,506.769,106.307,492.417z M365.289,246.575
	c12.797-6.848,6.662-26.529-7.458-18.104c-1.975,3.164-5.107,6.197-9.165,5.071C323.838,227.07,341.88,269.025,365.289,246.575z
	 M436.561,479.098c7.885-11.888,5.508-33.41-10.472-18.349c-13.544,33.357-16.074-2.851-20.915-16.857
	c-1.66-5.799-9.374-3.306-13.906-3.553C381.576,487.806,437.285,515.697,436.561,479.098z M179.894,136.51
	c10.519,6.219,21.804-12.407,9.081-14.861c-3.869,1.546-8.547,3.692-10.357-1.777c-9.191-20.709-21.241,5.628-7.102,13.385
	C175.087,133.702,178.488,132.57,179.894,136.51z M432.874,397.312c-21.839-13.39-44.698,43.483-18.888,30.068
	c2.815-5.475,12.117-9.815,10.994-0.181C420.334,483.178,473.87,434.923,432.874,397.312z M401.714,358.788
	c-7.889-9.068-14.089,0.236-9.833,8.861c-2.571,3.167-5.416,6.934-3.649,11.349c-6.715,2.933-8.215-2.598-5.581-7.834
	c-4.749-11.505-14.242,4.146-10.954,11.073C385.739,406.72,417.537,378.723,401.714,358.788z M348.732,320.093
	c-25.925,15.977,17.985,47.071,37.054,31.03c12.621-12.396,14.432-70.87-10.944-71.018c-5.996,2.162-11.14,2.794-15.548-2.387
	c-25.721-6.146-28.609,31.18,1.977,16.991C373.021,295.044,376.894,359.162,348.732,320.093z M327.88,354.633
	c6.211-17.832-5.729-60.035-28.729-55.61c-2.634,1.385-2.751-1.818-2.793-4.054c-1.781-6.008-17.46-9.285-23.406-5.122
	c6.935,6.253,13.874,12.332,20.726,18.247c0.447-0.372,0.902-0.765,1.376-1.203c-0.158,0.788-0.161,1.574-0.056,2.343
	c0.902,0.778,1.803,1.553,2.702,2.325c0.423,0.354-0.406,0.104-2.274-0.624c1.496,3.969,6.069,6.9,10.139,5.521
	c-4.682,8.149-1.925,22.483,9.11,22.326C295.387,353.498,317.826,383.8,327.88,354.633z M223.3,117.233
	c23.198,15.978,20.683,46.708-9.77,20.261c-19.395,0.844-11.377,28.058,0.359,35.09c4.55,3.064,9.048,0.551,12.371-2.883
	c7.305-4.951,17.754,3.983,25.558-0.092c10.594-10.354,10.259-36.401-0.356-47.049c2.212-19.94-18.732-30.721-36.426-26.122
	C191.805,105.07,199.25,133.464,223.3,117.233z M187.318,89.753c20.933-2.622-3.615-21.062-16.929-34.117
	c-5.407,8.627-9.422,18.242-11.713,28.765C168.392,104.213,202.493,120.138,187.318,89.753z M353.167,598.436
	c1.131,7.721,2.39,15.431,3.764,23.132C366.369,606.264,361.365,599.095,353.167,598.436z M297.544,240.675
	c-4.447,23.366-14.145,5.536-27.462,6.129c-16.595,5.963-8.285,20.082,5.451,21.116c0.903,8.177,9.234,9.407,16.049,7.316
	c9.037-6.806,14.826-3.766,22.805,1.365C330.94,270.56,319.43,205.532,297.544,240.675z M114.128,413.933
	c-9.567-12.076-18.071-8.973-0.9-21.703c4.584-14.838-17.185-9.661-21.951-1.826C77.732,402.791,105.59,429.428,114.128,413.933z
	 M165.849,270.109c-0.686-2.134-1.165-4.819-1.638-7.706c-6.292-1.747-12.471-3.323-18.455-4.675
	C150.255,269.91,161.071,281.736,165.849,270.109z M219.913,91.269c4.671,0.429,8.801-1.036,12.649-3.456
	c5.626-2.194,12.491,2.863,17.709-0.212c5.455-6.436,8.773-12.562,18.384-11.767c15.944-10.402-1.927-24.284-3.985-35.82
	c-0.487-7.135-6.645-11.137-11.49-15.27c0.25-24.716-22.781-1.724-36.018-2.913c-13.058,5.821-13.17,38.076,5.484,25.994
	c11.479-20.472,11.919-6.792,21.123,4.375c3.628,11.931-18.423,18.417-25.346,9.758C192.513,49.827,198.787,94.284,219.913,91.269z
	 M211.566,226.668c11.281,13.898,23.6,27.093,36.337,39.643c0.65-2.898-0.16-6.369-3.723-11.34
	C239.537,241.542,225.986,230.778,211.566,226.668z M211.027,205.81c-5.98,9.195,9.101,17.153,13.182,7.686
	C227.772,204.151,212.389,193.234,211.027,205.81z M204.41,295.034c15.239,18.56,32.35,12.306,34.351-7.202
	c-6.339-2.461-12.964-4.976-19.765-7.474c-2.19,2.856-5.988,3.647-11.706,0.521C200.589,281.777,200.882,290.751,204.41,295.034z
	 M282.583,362.638c9.24,11.014,23.658-8.995,12.36-14.732c-1.927-0.351-4.511-0.27-4.074-2.993
	C290.717,315.377,253.675,348.178,282.583,362.638z M281.472,324.549c-1.278-15.661,1.213-8.542,10.395-15.053
	c-5.385-2.219-14.157-5.948-25.141-10.466c-4.469,5.671-9.874,11.191-7.77,18.587C261.23,324.646,276.643,331.82,281.472,324.549z
	 M193.865,202.891c4.675-2.406,8.705-5.495,10.056-11.409c3.286-17.334-20.739-26.15-25.468-45.633
	c-5.53-2.547-10.614-4.165-15.279-5.056C170.052,162.854,180.755,183.51,193.865,202.891z M442.485,207.673
	c-1.286,8.288,7.945,22.872,17.259,21.812c22.162-5.559-0.871-11.56,1.872-23.853C454.306,194.715,449.087,205.016,442.485,207.673z
	 M440.352,291.313c11.056-9.823,21.971-19.703,32.516-29.867c-0.543-0.487-1.181-0.912-1.952-1.244
	c-2.911-1.659-0.551-3.759,2.114-4.032c23.014-15.325-13.981-37.448-24.123-15.744c-5.45,11.121-5.475,19.948-2.972,31.868
	C442.23,277.85,440.031,284.806,440.352,291.313z M393.568,683.358c-8.332,0.345-16.095,0.144-23.728-1.507
	c2.028,8.234,4.146,16.455,6.34,24.662c0.053,0.185,0.105,0.375,0.157,0.567c3.873,1.687,7.749,4.928,11.6,8.299
	c0.039-0.017,0.075-0.03,0.114-0.047c7.951-3.509,17.193-5.774,25.234-8.085C411.771,696.27,404.284,685.398,393.568,683.358z
	 M252.673,514.728c-21.034-10.816-44.717,11.385-29.462,31.43c11.629,13.158,27.671-23.691,34.456-2.464
	c-2.52,47.748-23.513,9.45-35.822,19.23c-13.009,25.911,16.044,25.701,34.998,21.373c5.259-5.528,10.37-11.361,15.315-17.379
	c-0.318-7.186-1.61-15.073,3.832-20.122C285.487,529.056,275.149,503.114,252.673,514.728z M663.491,307.254
	c14.02,3.584,18.096-16.239,9.624-23.981c-24.481-11.021-12.237-11.01-2.487-13.638c-1.654-1.039-3.339-2.049-5.085-3.004
	c-7.943-3.691-16.748-6.128-26.165-7.534c-2.462,2.506-4.021,5.542-4.121,9.033C649.847,290.463,638.396,305.068,663.491,307.254z
	 M545.767,100.581c6.813,2.59,12.392-0.739,15.886-6.074c-1.221-10.015-3.876-19.584-7.847-28.498
	C546.748,71.047,540.629,90.568,545.767,100.581z M465.552,108.875c-35.943-3.417-22.63-1.46-50.958,20.851
	c-6.101,9.527-12.39,21.433,1.669,27.518c9.811,3.111,24.053,22.444,32.748,10.541c9.975-22.837-16.727-12.825-15.695-24.792
	c2.041-23.644,49.128-27.247,52.182,2.863c1.384,13.638-17.325,25.317-28.314,14.493c-24.228,21.14,22.115,42.949,31.852,21.01
	c1.283-4.367,0.98-8.441-1.648-11.76c4.068-4.745,14.835-5.909,14.184-14.503C503.012,117.138,497.702,138.839,465.552,108.875z
	 M431.3,55.68c21.608-1.804-0.379,36.647,33.406,32.349c61.429-26.814,21.124-12.895,23.825-54.966
	c-34.076-39.123,7.726,43.923-26.903,30.985c-8.673-3.692-6.795-13.811-8.285-21.223C445.539,29.248,428.836,43.071,431.3,55.68z
	 M371.219,535.932c0.914-14.478,16.643-26.207-6.949-34.191c-13.064-4.467,7.851-10.469,0.353-18.74
	c-2.199-10.485-9.931-12.645-16.308-10.761c-1.491,17.46-1.965,34.883-1.579,52.266c0.343,0.879,0.495,1.82,0.361,2.861
	c-0.087,0.183-0.186,0.366-0.29,0.548c0.311,10.853,0.955,21.69,1.893,32.51C362.154,558.883,374.012,552.477,371.219,535.932z
	 M660.563,434.096c-9.581,2.737-33.313,9.55-24.692-9.118c9.332-13.147,40.064-18.863,26.301-40.685
	c-13.331-13.96-30.016,2.78-29.495,18.235c-44.235,15.464-30.525,79.983,10.903,56.599
	C659.355,460.876,683.199,444.631,660.563,434.096z M531.894,599.034c30.22-8.7-9.861-42.732-27.543-25.228
	c-14.925,5.666-20.878,19.238-29.405,30.41c8.159,6.84,16.672,12.633,25.544,17.09c1.929-5.546,4.889-11.045,6.691-15.615
	c5.896-5.514,12.251-11.994,20.358-13.685C528.606,594.135,528.185,598.387,531.894,599.034z M556.782,142.64
	c-7.119,2.669-13.307,12.182-13.092,22.76c-6.906,7.269-8.516,14.09-6.886,18.932c4.024-6.657,7.812-13.527,11.31-20.661
	C551.697,156.646,554.57,149.618,556.782,142.64z M550.275,308.74c10.402,3.417,9.285-13.967,17.603-15.643
	c27.509,8.251,37.159-41.223,5.72-21.366C563.573,280.764,536.771,292.986,550.275,308.74z M540.441,331.77
	c0.643-13.27,3.696-26.799-5.804-37.925C502.247,266.245,515.633,361.095,540.441,331.77z M422.723,334.981
	c17.493,7.956,19.35-15.973,9.999-27.694c-8.756,3.316-14.237,5.079-15.289,4.27c3.316-2.932,6.633-5.855,9.946-8.776
	c-5.586-2.906-13.156-2.168-22.357,5.872c-7.046,14.151,14.439,25.585,9.663,5.72c4.65,0.356,5.617,5.065,4.912,8.755
	C424.622,325.43,421.347,330.973,422.723,334.981z M473.158,431.77c7.949-12.231,14.278,3.857,22.77,5.194
	c34.52-4.84-33.229-46.959-35.483-3.284C459.353,448.138,471.03,441.153,473.158,431.77z M263.419,239.11
	c8.886-16.645-5.305-57.547,27.222-21.031c2.897,9.539,16.713,7.408,21.535,1.027c4.511-13.563-11.75-27.63-18.888-38.34
	C209.695,145.477,228.906,263.647,263.419,239.11z M486.083,364.765c-0.414,13.424-12.864,57.506,14.616,37.288
	c6.094-27.88,31.314-61.786-9.675-74.26c-60.703-13.463-30.595,13.961-55.84,35.875c-14.774,17.604,24.443,37.538,24.657,10.332
	C456.532,349.701,479.036,335.549,486.083,364.765z M131.408,311.944c11.176-8.176,9.293,17.311,23.162,14.919
	c15.91,2.837,10.054-16.975,2.278-22.851c-11.624-8.751-71.876-23.703-64.549,2.164C64.525,307.51,88.061,345.878,131.408,311.944z
	 M304.127,127.075c-5.024-1.908-8.758,0.878-12.601,3.656c-4.737,0.958-16.222,0.713-12.591,8.471
	c13.214,6.573-8.132,14.863,8.82,23.839c1.685,21.959,23.864-3.631,6.637-8.155C292.884,143.924,322.385,136.601,304.127,127.075z
	 M564.342,595.788c-5.225,13.671,10.788,25.289,17.728,9.092C631.729,618.864,589.44,553.74,564.342,595.788z M588.426,551.904
	c-3.741,1.019-7.606,0.471-8.755-3.415c-12.49-9.688-49.143,30.795-1.726,25.917c2.384-9.552,9.333-7.344,16.81-9.098
	C601.771,557.296,599.112,536.091,588.426,551.904z M522.721,380.168c-6.4,6.544-14.396,23.199-2.445,27.577
	c-4.4,11.705-4.621,21.503,12.426,18.26c8.8-7.903-5.447-18.996-4.178-28.219C546.98,385.666,547.736,370.815,522.721,380.168z
	 M693.125,415.283c6.405-6.389-15.448-11.834-3.347-15.225c19.046-4.501-12.229-27.91-11.56-7.939
	c2.195,4.339-5.358,4.289-7.477,6.523C662.374,407.584,685.639,427.757,693.125,415.283z M446.979,24.197
	c8.682-7.212,6.832-13.722,2.113-20.236c-13.076-0.185-25.551,1.256-37.478,4.518C419.594,20.409,435.337,29.181,446.979,24.197z
	 M215.209,445.228c-12.825-12.109-64.952,15.807-36.296,24.488c9.327-2.06,24.533-8.547,28.228,4.902
	c0.662,17.146-22.702,14.91-34.422,15.053c-3.398-3.862,2.113-9.563,0.601-13.905c-14.32-19.626-29.844,30.782-11.605,32.043
	c13.271-1.813,23.568,8.141,35.071,9.616C225.28,507.052,240.048,466.571,215.209,445.228z M431.33,687.959
	c-4.374,4.156-6.947,9.291-6.611,15.359c6.805-3.065,10.423-7.053,7.281-13.807C431.773,688.995,431.555,688.476,431.33,687.959z
	 M708.688,345.781c-11.703,0.164-24.599-9.488-35.258-4.183c0.966,15.663-22.859,19.709-6.107,30.369
	c22.361-0.998,29.789,10.86,44.086,21.407c3.63-12.1,5.389-24.805,5.173-37.429C715.162,351.678,712.98,347.958,708.688,345.781z
	 M173.154,541.049c6.294,20.63,10.613,6.803-1.303,28.592c5.466,16.071-8.868,4.16-10.539,16.872
	c-4.757,0.743-6.684-6.725-12.51-5.779c-2.105-1.142-1.141-3.358-0.072-4.868c8.516-18.7-34.017-3.684-18.561,11.596
	c4.668,3.223,4.252,8.659,5.817,13.535c4.107,9.479,31.734,7.648,26.878-5.651c19.438,1.41,30.974-19.021,34.776-37.164
	C205.916,536.553,173.283,504.736,173.154,541.049z M380.532,205.055c6.381-15.746-15.111-22.179-25.334-13.081
	C332.789,212.154,370.141,226.12,380.532,205.055z M552.944,630.573c6.201-0.857,12.538-2.404,19.012-4.703
	c-0.053-0.227-0.104-0.456-0.15-0.684C565.639,613.332,554.686,621.037,552.944,630.573z M162.703,628.729
	c3.135,0.49,6.27,0.834,9.392,1.009c2.436,0.079,4.863,0.017,7.28-0.163C179.846,618.385,169.086,616.216,162.703,628.729z
	 M333.889,135.816c-10.753-6.154-30.2-4.993-18.113,10.781c4.114,4.866,13.822,6.469,13.802,13.927
	c-4.386,7.965-20.069-1.234-22.99,10.472C314.709,212.901,378.022,170.881,333.889,135.816z M285.187,82.795
	c-57.587,13.069,37.575,59.598,36.639,21.739C317.99,90.205,299.323,80.926,285.187,82.795z M128.32,254.369
	c-1.208-0.186-2.407-0.362-3.587-0.52c-7.074-1.009-13.882-1.401-20.418-1.246c-0.069,0.297-0.145,0.585-0.234,0.855
	c-9.104,3.531-12.987,17.297-21.942,13.454c-8.436-3.62-18.389-0.766-27.612-0.273c-6.462,3.883-12.362,8.466-17.673,13.609
	c0.081,0.221,0.157,0.438,0.244,0.662C74.725,306.048,123.012,290.781,128.32,254.369z M80.901,426.396
	c3.063-12.407,1.882-27.882-11.538-33.573c21.396-19.194-34.839-29.716-37.115-9.778c-5.887,18.01,13.805,11.496,22.957,15.446
	c4.281,10.694,10.026,29.816-6.183,30.35c-11.476,0.378-21.761-1.683-27.065-5.261c7.153,10.488,16.451,19.96,28.028,27.829
	c8.793-2.274,18.071-5.435,27.285-8.75C85.608,440.07,83.816,432.475,80.901,426.396z M600.579,483.412
	c-3.362-4.323-11.238,0.844-15.303-2.794c-4.714-17.316-5.451-10.371-18.567-16.259c-8.18-17.039-34.032,6.193-33.313,20.258
	c-5.661,13.354-6.03,35.492,12.866,18.896c10.8-6.25,7.46-20.477,16.267-23.171c19.466,4.726,8.942,36.452-5.757,39.75
	c-4.096,2.097-8.105,7.648-13.193,5.466c-5.012-11.259-17.927,0.814-13.119,9.979C558.184,558.073,614.314,517.981,600.579,483.412z
	 M215.235,602.074c-17.494-3.419-40.532,18.509-21.822,25.06c11.788-3.207,23.276-9.187,34.335-17.085
	C224.767,605.443,220.64,602.265,215.235,602.074z M294.847,36.155c6.2,1.992,2.489,21.645,12.948,12.362
	c5.569-8.808,3.476-19.199,1.339-28.61c8.018-16.528,29.484,10.046,30.328,21.23c-1.047,10.692-9.316,1.237-14.066,1.78
	c-40.014,19.438,14.038,74.074,6.381,17.999c15.313,2.514,26.363-11.203,29.27-25.771c-2.13,0.25-4.667-0.509-7.888-3.155
	c-17.879-16.257-40.834-25.245-64.71-27.753c-0.293,0.872-0.566,1.795-0.818,2.769C270.632,7.094,274.223,51.466,294.847,36.155z
	 M27.818,309.815c-12.725,11.783,6.244,12.86,14.348,13.565c6.464,4.802,4.637,16.648-3.269,18.617
	c-6.314,0.512-23.652-1.314-20.383-10.513c4.059-12.755-1.227-14.529-7.555-11.277c-3.476,9.244-5.786,18.964-6.864,28.842
	c1.704,0.841,3.757,1.562,6.218,2.125C54.67,403.512,105.11,290.884,27.818,309.815z M520.615,628.848
	c8.264,2.057,16.809,2.915,25.636,2.386c0.499-5.376,0.612-10.355,0.469-14.212C535.416,596.527,528.16,614.048,520.615,628.848z
	 M536.587,59.055c8.758,8.45,11.472,2.793,10.741-5.197c-8.762-13.947-21.114-25.728-36.444-34.338
	c-1.635,0.462-3.2,1.132-4.637,2.034c-6.747,9.558,6.991,18.764,7.037,28.723C525.431,73.231,522.581,22.136,536.587,59.055z
	 M515.631,178.952c15.125,4.595,22.828-18.492,4.033-10.48c-0.421-4.645,4.06-6.38,7.817-6.299c1.434-5.338,7.444-3.03,11.168-5.052
	C546.527,127.486,480.969,150.598,515.631,178.952z M705.207,322.083c-0.327,8.464,3.388,10.067,8.084,8.097
	c-2.423-9.917-6.182-19.463-11.349-28.257C674.652,299.442,682.704,324.341,705.207,322.083z M362.095,87.227
	c4.642-4.757,17.576-23.773,18.394-6.261c-2.262,13.114,5.723,55.89-17.244,28.52c-5.177-2.979-15.225,8.79-12.846,13.463
	c9.541,10.304,13.471,16.593,25.518,5.726c28.095,11.337,27.988-23.114,26.978-41.891C423.458,25.952,313.167,69.976,362.095,87.227
	z M508.935,104.179c11.441-6.79,12.108,19.247,21.207,10.44c-12.9-24.134,4.275-14.122,5.141-24.619
	c-7.152,0.763-20.658,17.756-20.232-0.066C510,73.641,497.236,104.411,508.935,104.179z M396.002,29.617
	c-0.058,8.034,7.586,10.933,4.909,19.594c2.134,10.237,16.724,5.186,14.028-4.32c-1.696-3.462-0.538-6.21,1.847-8.915
	c0.804-27.754-52.279-19.664-30.515,7.213C397.449,46.593,388.858,23.281,396.002,29.617z M489.869,244.401
	c11.609-12.155,22.56-24.853,32.505-38.441C479.467,215.036,479.51,239.531,489.869,244.401z M257.947,333.143
	c-6.94-4.119-15.534-3.718-20.433-11.221c-27.375,4.734-7.073-2.546-25.782-5.988c-13.211-0.359-27.038,22.847-15.016,32.235
	c11.07-0.921,32.047-16.969,33.959,5.865c-2.175,16.348-10.407,28.843-19.37,7.073c-18.515-10.85-18.063,33.965,9.945,26.139
	c3.359,6.907,19.405,16.378,19.477,1.719c0.643-5.675,7.976-7.887,10.279-13.092c2.184-4.874-0.825-12.677,4.547-15.896
	C269.315,357.873,265.243,340.441,257.947,333.143z M378.81,151.346c-10.742-9.202-17.997,9.491-11.54,16.735
	c14.389-2.353,11.928,9.391,23.372,12.565C416.197,180.027,401.253,140.988,378.81,151.346z M79.188,549.543
	c-4.637-3.122-8.273-3.859-11.129-2.977c1.994,6.52,4.589,12.788,7.712,18.748C79.424,559.704,88.73,554.35,79.188,549.543z
	 M199.405,279.402c0.158-2.535-0.976-4.691-2.287-6.78c-6.174-2.091-12.383-4.11-18.555-6.01
	C184.02,282.474,192.123,296.465,199.405,279.402z M234.57,436.293c23.159,15.489,29.13-14.911,7.539-22.455
	c-6.619-4.625-12.73-2.289-18.765,0.398c-4.219-7.921-20.201-13.722-24.619-2.499C193.112,431.428,225.279,425.12,234.57,436.293z
	 M283.794,449.822c-6.974-3.905-21.669-1.902-20.08,8.488c7.021,10.054,39.173,14.538,5.302,26.356
	c-0.154-7.127-8.491-12.636-14.9-9.847c6.759-16.153-15.003-13.354-13.961,0.906c0.295,10.226,7.956-0.832,10.045,17.057
	C278.656,512.216,312.992,470.979,283.794,449.822z M156.688,413.733c-6.001,4.451-0.69,15.707,3.869,19.726
	c39.296-2.242,32.297-22.736,10.75-45.565c-3.429-4.049-7.563,1.574-11.039,2.033c-5.208-2.894-12.583-0.612-13.871,5.732
	c-0.877,19.193,30.609-2.571,31.194,14.977C178.827,430.192,164.604,412.153,156.688,413.733z M93.832,545.301
	c-3.37,7.756,7.583,13.961,6.372,21.617c-1.297,5.853-9.394,10.718-16.279,11.678c5.669,7.994,12.294,15.259,19.596,21.641
	c7.634-8.505,13.594-19.872,9.892-29.445C130.071,558.612,107.792,531.033,93.832,545.301z M132.032,505.395
	c-1.605-0.253-1.192-1.833-0.228-2.777c16.142-21.514-27.738-30.699-19.347-4.792c10.816,16.542-0.145,8.102-9.942,13.53
	c-10.733,16.924,10.538,21.34,23.182,17.105C136.599,526.509,146.912,509.858,132.032,505.395z M158.951,556.749
	c1.345-7.246-1.629-10.967,7.405-14.014c4.89-16.921-13.025-21.967-22.124-8.808C132.434,545.804,143.216,565.077,158.951,556.749z
	 M133.402,473.68c4.988,23.733,42.058-8.093,11.71-42.117c-20.079,0.537-23.076-17.019-46.664,0.882
	c-9.332,6.456-11.051,27.328,1.359,30.909C129.908,453.828,101.028,468.027,133.402,473.68z M309.256,487.034
	c-1.766,8.43-8.116,14.91-10.021,22.795c-1.041,5.136,2.038,9.962,5.884,11.467c3.465-5.35,6.776-10.623,9.919-15.745
	c0.414-2.003,1.239-3.736,3.002-4.929c5.583-9.232,10.589-17.867,14.944-25.438C328.997,467.37,316.635,466.667,309.256,487.034z
	 M654.559,511.948c0.278-0.122,0.557-0.262,0.835-0.411c-1.574-14.965-5.443-27.698-5.263-37.431
	c-18.651,13.699-32.454,38.044-25.342,61.333c10.104,11.711,24.469,11.008,29.863,3.734c0.716-3.954,1.126-7.815,1.296-11.571
	c-1.127-3.311-3.41-6.964-7.167-10.827C647.542,512.726,651.276,511.595,654.559,511.948z M679.814,429.626
	c-0.671,3.471,0.714,7.417,3.348,11.318c5.622-5.476,10.556-11.597,14.796-18.183C691.698,421.804,685.278,423.614,679.814,429.626z
	 M616.032,540.102c-10.229,0.749-0.668,12.123-4.52,16.933c-5.32,9.347,11.262,37.282,20.219,24.936
	c-6.001-13.206,8.051-8.556-3.609-17.108C641.777,556.419,631.108,538.166,616.032,540.102z M393.556,194.353
	c-20.431,13.838-8.84,24.114,8.385,30.54c-2.191,8.438-6.086,12.839-2.417,22.375c-3.339,4.185-12.928-1.173-15.387,6.433
	c-8.383,15.021,3.133,20.038,16.829,18.283c11.228,0.858,18.266-5.338,18.932-15.994
	C461.739,230.576,435.779,194.292,393.556,194.353z M617.069,383.739c21.105,6.745,9.349-15.638,20.787-21.616
	c4.757-11.505-9.658-15.978-17.932-11.228C614.819,358.33,605.548,378.834,617.069,383.739z M450.878,308.161
	c29.709,14.595,65.147-17.913,49.127-26.226c-21.696,7.424-41.095,15.124-55.65,20.84
	C445.978,304.883,448.124,306.723,450.878,308.161z M503.205,470.45c2.965-7.667,8.67-5.161,14.827-4.425
	c12.679-5.909,6.917-16.723,0.847-25.068c-8.316-18.133-20.826,13.334-29.841,15.222c-4.887-0.663-9.332-4.164-14.434-3.765
	C445.571,461.326,492.226,491.354,503.205,470.45z M391.794,617.868c7.027,19.483-27.467,22.365-24.256,41.036
	c11.63,17.892,34.004,7.112,48.523-9.237c-8.875-24.43-16.327-49.315-22.507-74.523
	C366.557,568.505,341.439,598.811,391.794,617.868z M506.655,548.887c-12.593-16.489,11.54-14.08-13.395-38.348
	c23.185-31.004-51.75-29.139-39.597-0.588c7.711,10.371,33.995-8.444,24.549,26.081c-8.811,3.74-19.812-0.769-28.623,3.812
	c-7.371,5.197-17.834,5.689-20.987-4.119c8.26-6.013,34.904-21.887,10.254-27.276c-11.508,1.737-21.566,6.442-28.54,12.605
	c12.166,21.199,25.709,41.702,40.668,59.165c11.426-2.539,23.787-8.797,34.045-11.6
	C496.991,569.585,509.593,561.796,506.655,548.887z M587.496,330.168c-14.471,0.786-46.328,6.124-26.435,25.256
	c18.873,8.878,40.545,13.187,42.489-13.32c5.022-4.611,15.865-2.968,15.164-12.243c2.596-9.553-5.161-15.512-8.02-22.382
	c5.049-3.668,11.065-8.054,10.8-15.139c-0.223-21.307-38.24-15.457-21.444,3.409C577.041,301.884,587.401,312.244,587.496,330.168z
	 M596.248,417.032c2.774-9.636-2.671-19.339-11.883-21.833c-14.615-51.287-62.923-10.026-22.405-8.449
	c8.19,0.437-0.423,8.048-3.057,10.413c5.515,31.589-6.268,11.599-18.278,28.893C531.869,444.504,591.609,445.659,596.248,417.032z"
	/>
<g>
</g>
<g>
</g>
<g>
</g>
<g>
</g>
<g>
</g>
</svg>
